<?xml version="1.0" encoding="UTF-8"?>
<svg width="18px" height="18px" viewBox="0 0 18 18" version="1.1" xmlns="http://www.w3.org/2000/svg" xmlns:xlink="http://www.w3.org/1999/xlink">
    <!-- Generator: Sketch 50.2 (55047) - http://www.bohemiancoding.com/sketch -->
    <title>download-symbol</title>
    <desc>Created with Sketch.</desc>
    <defs></defs>
    <g id="Welcome" stroke="none" stroke-width="1" fill="none" fill-rule="evenodd">
        <g id="Desktop" transform="translate(-13.000000, -511.000000)" fill="#1ABC9C" fill-rule="nonzero">
            <g id="download-symbol" transform="translate(13.000000, 511.000000)">
                <path d="M16.775385,4.47757175 C15.9714123,3.10022323 14.8808747,2.00968565 13.5034852,1.20575399 C12.1258497,0.401863326 10.6219681,0 8.99069248,0 C7.35958087,0 5.85524829,0.401863326 4.47785877,1.20575399 C3.10038724,2.00956264 2.00984966,3.10010023 1.20587699,4.47757175 C0.401863326,5.85512528 0,7.35945786 0,8.99044647 C0,10.6215171 0.401986333,12.1256036 1.20575399,13.5032392 C2.00968565,14.8805877 3.10022323,15.9711253 4.47769476,16.775139 C5.85524829,17.5789886 7.35945786,17.9808929 8.99052847,17.9808929 C10.6215991,17.9808929 12.1259727,17.5789886 13.5034442,16.775139 C14.8808337,15.9714123 15.9713303,14.8805877 16.775221,13.5032392 C17.5789886,12.1257267 17.9808109,10.6214351 17.9808109,8.99044647 C17.9808519,7.35929385 17.5789886,5.85492027 16.775385,4.47757175 Z M14.5042278,12.186205 C13.9345421,13.1616902 13.1619772,13.9342551 12.186492,14.5042278 C11.2110068,15.0739134 10.1457677,15.3584692 8.99056948,15.3584692 C7.83565831,15.3584692 6.77033713,15.0739134 5.79472893,14.5042278 C4.81924374,13.9342551 4.04667882,13.1616902 3.47699317,12.186205 C2.90718451,11.2107198 2.62238269,10.1454396 2.62238269,8.99044647 C2.62238269,7.8353713 2.90730752,6.77009112 3.47699317,5.79460592 C4.04655581,4.81912073 4.81932574,4.0463918 5.79472893,3.47674715 C6.77021412,2.9070205 7.83549431,2.62225968 8.99056948,2.62225968 C10.1457267,2.62225968 11.2110068,2.9070205 12.186492,3.47674715 C13.1619772,4.0464328 13.9345831,4.81912073 14.5042278,5.79460592 C15.0739544,6.77009112 15.3586333,7.8353713 15.3586333,8.99044647 C15.3586333,10.1454396 15.0739544,11.2107198 14.5042278,12.186205 Z" id="Shape"></path>
                <path d="M12.7366606,8.99044647 L10.4892027,8.99044647 L10.4892027,4.86955353 C10.4892027,4.76024146 10.4538588,4.67056948 10.3837039,4.60029157 C10.313836,4.53021868 10.224,4.49499772 10.1148519,4.49499772 L7.86698405,4.49499772 C7.75775399,4.49499772 7.667959,4.53021868 7.5977221,4.60029157 C7.52744419,4.67061048 7.49234624,4.76024146 7.49234624,4.86955353 L7.49234624,8.99028246 L5.24464237,8.99028246 C5.07300683,8.99028246 4.95590433,9.0683918 4.89341686,9.22436446 C4.83092938,9.37283371 4.85840091,9.50920729 4.97538041,9.63422323 L8.72147153,13.3802323 C8.8074123,13.4503872 8.89708428,13.4854852 8.99073349,13.4854852 C9.08425968,13.4854852 9.17405467,13.4503872 9.26007745,13.3802323 L12.9944419,9.64603189 C13.0724282,9.55242369 13.1113394,9.45840547 13.1113394,9.36508428 C13.1113394,9.25593622 13.0762825,9.16610023 13.0058405,9.09569932 C12.9357677,9.02550342 12.8459727,8.99044647 12.7366606,8.99044647 Z" id="Shape"></path>
            </g>
        </g>
    </g>
</svg>